<svg xmlns="http://www.w3.org/2000/svg" viewBox="0 0 48 48" width="48" height="48" fill="none">
  <defs>
    <linearGradient id="brandGrad" x1="0" y1="0" x2="48" y2="48" gradientUnits="userSpaceOnUse">
      <stop offset="0%" stop-color="#2563eb" />
      <stop offset="100%" stop-color="#1d4ed8" />
    </linearGradient>
  </defs>
  <rect width="48" height="48" rx="14.399999999999999" fill="url(#brandGrad)" />
  <g transform="translate(8.399999999999999, 8.399999999999999)">
    <svg width="31.200000000000003" height="31.200000000000003" viewBox="0 0 24 24" fill="none" stroke="#ffffff" stroke-width="2" stroke-linecap="round" stroke-linejoin="round">
      <path d="M21.42 10.922a1 1 0 0 0-.019-1.838L12.83 5.18a2 2 0 0 0-1.66 0L2.6 9.08a1 1 0 0 0 0 1.832l8.57 3.908a2 2 0 0 0 1.66 0z" />
      <path d="M22 10v6" />
      <path d="M6 12.5V16a6 3 0 0 0 12 0v-3.5" />
    </svg>
  </g>
</svg>